<svg width="255" height="93" viewBox="0 0 255 93" fill="none" xmlns="http://www.w3.org/2000/svg">
<path d="M48 43.0873C45.6012 46.1332 43.0078 47.9513 39.3864 49.568C35.765 51.1893 31.6944 52 27.1745 52C22.0017 52 17.3522 50.8894 13.2353 48.673C9.11375 46.4612 5.88133 43.3825 3.5288 39.4276C1.17627 35.4726 0 31.0023 0 26.0023C0 21.0024 1.17627 16.5227 3.5288 12.5724C5.88133 8.61746 9.11375 5.53411 13.2353 3.32234C17.3522 1.11057 21.9971 0 27.1745 0C31.6944 0 35.7603 0.810669 39.3864 2.42732C43.0078 4.04398 45.5641 5.81995 47.963 8.86582C42.6188 11.9867 39.1317 17.0897 38.1546 21.5038L37.7378 23.397C37.534 21.6116 29.4993 17.652 25.2851 23.0643C25.3407 23.1861 25.4055 23.3126 25.4611 23.4344C26.253 25.187 26.7485 29.4606 25.6648 31.26C26.8365 25.5056 21.8026 23.5656 21.4784 18.1815C23.5161 18.3221 26.4984 17.6942 25.8871 18.0784C27.2023 19.0296 29.1103 17.8113 29.152 16.2696C29.1242 15.6979 29.703 15.2996 29.8049 14.7935C29.9161 13.7954 29.6197 12.7833 29.3001 11.7852C29.1056 11.1666 28.9019 10.5528 28.7815 9.94359C28.1563 6.90709 20.5661 10.295 18.1719 10.2154C13.8883 10.6559 15.1201 15.5058 14.3467 18.5517C12.6889 23.903 10.2067 29.6152 13.3974 34.9291C13.6289 34.6339 13.791 34.4183 14.0735 34.0575C13.9253 36.5879 13.0084 39.765 16.4307 39.8681C19.163 40.2289 21.8813 40.1258 24.609 39.9571C25.2295 39.9196 25.8547 39.8774 26.4799 39.8353C26.1603 39.9243 25.8408 40.018 25.5074 40.1117C25.0721 40.2383 24.6182 40.3648 24.1551 40.5007C30.1986 42.8249 37.8443 39.6385 39.5161 34.423L39.9282 35.4961C42.0029 39.0433 44.2999 41.6066 48 43.0873Z" fill="white"/>
<path d="M156.103 63.8027L155.694 76.0035C155.56 79.2846 155.302 81.9213 154.921 83.9136C154.543 85.9059 153.979 87.3773 153.235 88.3278C152.489 89.2756 151.519 89.7508 150.327 89.7508C149.892 89.7508 149.446 89.6971 148.985 89.5871L148.74 92.2721C149.527 92.46 150.287 92.5567 151.017 92.5567C152.727 92.5567 154.094 91.966 155.125 90.7873C156.156 89.6085 156.922 87.8176 157.424 85.4199C157.926 83.0195 158.243 79.8538 158.379 75.923L158.704 66.4072H172.449V92.2587H175.419V63.8027H156.103Z" fill="#222222"/>
<path d="M214.796 70.2066C213.534 67.9512 211.797 66.1844 209.582 64.9117C207.367 63.639 204.888 63 202.147 63C199.599 63 197.273 63.5612 195.168 64.6835C193.063 65.8032 191.353 67.3685 190.04 69.3769C188.724 71.3853 187.954 73.6488 187.734 76.1674H181.711V63.8028H178.68V92.2588H181.711V78.9518H187.693C187.857 81.5535 188.593 83.8949 189.892 85.9704C191.195 88.0486 192.91 89.6677 195.045 90.8303C197.177 91.9929 199.545 92.5756 202.147 92.5756C204.888 92.5756 207.367 91.9392 209.582 90.6638C211.797 89.3911 213.534 87.6271 214.796 85.369C216.055 83.1109 216.686 80.5842 216.686 77.7891C216.686 74.9913 216.055 72.4647 214.796 70.2066ZM212.116 83.9781C211.12 85.8039 209.748 87.2377 208.003 88.2769C206.26 89.316 204.308 89.8342 202.147 89.8342C200.015 89.8342 198.076 89.316 196.331 88.2769C194.588 87.2377 193.216 85.8039 192.22 83.9781C191.224 82.1496 190.725 80.0875 190.725 77.7891C190.725 75.4907 191.224 73.426 192.22 71.6001C193.216 69.7716 194.588 68.3378 196.331 67.2987C198.076 66.2623 200.015 65.7414 202.147 65.7414C204.308 65.7414 206.26 66.2623 208.003 67.2987C209.748 68.3378 211.12 69.7716 212.116 71.6001C213.112 73.426 213.612 75.4907 213.612 77.7891C213.612 80.0875 213.112 82.1496 212.116 83.9781Z" fill="#222222"/>
<path d="M238.077 63.8027V77.8213C235.116 79.1799 232.21 79.8565 229.356 79.8565C226.857 79.8565 224.915 79.247 223.53 78.0253C222.144 76.801 221.452 75.0906 221.452 72.8916V63.8027H218.477V73.2164C218.477 76.1512 219.408 78.4308 221.269 80.0606C223.13 81.6904 225.732 82.5066 229.072 82.5066C231.977 82.5066 234.979 81.8408 238.077 80.509V92.3258H241.009V63.8027H238.077Z" fill="#222222"/>
<path d="M55 1V51H68.9483V12.2144H87.9808V51H102V1H55Z" fill="white"/>
<path d="M166 47.633C172.332 44.7774 176.722 41.794 180 39V51H166V47.633Z" fill="white"/>
<path d="M194 27C193.957 30.0413 193.512 33.1116 192.666 36.2158C192.517 36.7622 192.359 37.2941 192.187 37.8211C191.011 37.942 189.791 38 188.524 38H181C183.152 36.0369 184.812 34.1899 186.261 32.5653C189.021 29.4853 190.829 27.469 194 27Z" fill="white"/>
<path d="M199.996 28.7847C201.45 30.1539 202.391 32.0708 203 33.983C202.109 34.5212 201.153 35.0076 200.127 35.4419C198.547 36.1124 196.836 36.627 195 37C195.01 36.9622 195.025 36.9245 195.035 36.8867C195.896 33.9877 196.514 30.6591 196.55 27C197.868 27.2597 199.005 27.8499 199.996 28.7847Z" fill="white"/>
<path d="M193.611 21C193.789 22.0253 193.92 23.0507 194 24.0853C189.605 24.5887 187.203 27.2172 184.248 30.461C180.837 34.2081 176.231 39.2555 166 44V29.3611C177.042 22.7664 186.663 21.0373 193.611 21Z" fill="white"/>
<path d="M210 24.3359C209.54 26.069 208.814 27.6531 207.826 29.1021C207.104 30.1643 206.261 31.1288 205.303 32C204.581 30.0758 203.535 28.1842 202.019 26.7166C200.441 25.1838 198.547 24.2753 196.363 24.0004C196.286 23.022 196.169 22.0203 196 21C203.414 21.4659 208.455 23.5997 210 24.3359Z" fill="white"/>
<path d="M182.899 1C185.939 4.58543 188.306 8.25522 190 12C188.446 11.7094 186.752 11.1986 184.994 10.6689C179.583 9.03323 173.001 7.04602 166 10.3174V1H182.899Z" fill="white"/>
<path d="M203 5.07538C202.338 6.98492 199.919 12.4623 193.776 13C192.25 9.1206 190.053 5.09548 187 1H188.318C192.85 1 196.781 1.79899 200.122 3.39698C201.152 3.88945 202.112 4.45226 203 5.07538Z" fill="white"/>
<path d="M192.182 15.595C192.492 16.4451 192.765 17.2951 193 18.1498C185.983 18.2892 176.624 20.0311 166 26V14.0993C172.706 10.4622 179.112 12.3156 184.807 13.9646C187.389 14.7125 189.849 15.4232 192.182 15.595Z" fill="white"/>
<path d="M210 20.1219C210 20.7626 209.977 21.3887 209.928 22C207.618 20.8702 202.669 18.8895 195.759 18.5373C195.542 17.6032 195.294 16.6544 195 15.6958C200.559 14.8203 203.763 10.4089 205.164 7C206.009 7.88523 206.755 8.86828 207.401 9.93935C209.137 12.8298 210 16.224 210 20.1219Z" fill="white"/>
<path d="M211 1V12.2144H226.16V51H239.91V12.2144H255V1H211Z" fill="white"/>
<path d="M143.289 35.6549C145.125 34.0044 146.367 32.1195 147 30V39H137C139.356 38.4292 141.453 37.3142 143.289 35.6549Z" fill="white"/>
<path d="M161 25.4954C161 30.3538 159.809 34.7172 157.428 38.5947C156.349 40.3484 155.089 41.9309 153.646 43.3375L150.06 39.7839V28.9056C150.06 22.5016 143.387 16.5234 142.967 16.1579C142.953 16.144 142.948 16.1394 142.948 16.1394C140.983 14.1867 138.821 12.8772 136.472 12.2017C134.123 11.5215 131.817 11.4799 129.552 12.0721C127.287 12.669 125.27 13.8443 123.501 15.5934C121.736 17.347 120.554 19.3413 119.952 21.5855C119.354 23.8342 119.392 26.12 120.078 28.4475C120.76 30.7749 122.086 32.9126 124.052 34.8606C124.052 34.8606 124.056 34.8653 124.07 34.8792C124.439 35.2956 130.467 41.9124 136.93 41.9124V41.917H147.912L151.353 45.3225C150.2 46.2063 148.948 46.9976 147.604 47.7055C143.429 49.9034 138.732 51 133.498 51C128.268 51 123.566 49.9034 119.396 47.7055C115.222 45.5122 111.949 42.4769 109.567 38.5993C107.186 34.7218 106 30.3585 106 25.5C106 20.6415 107.186 16.2735 109.567 12.396C111.949 8.52314 115.222 5.48775 119.396 3.28987C123.566 1.09662 128.268 0 133.498 0C138.732 0 143.429 1.09662 147.604 3.28987C151.773 5.48775 155.047 8.52314 157.428 12.396C159.809 16.2689 161 20.6369 161 25.4954Z" fill="white"/>
<path d="M129 23C130.105 23 131 22.1046 131 21C131 19.8954 130.105 19 129 19C127.895 19 127 19.8954 127 21C127 22.1046 127.895 23 129 23Z" fill="white"/>
<path d="M124.5 28C125.328 28 126 27.1046 126 26C126 24.8954 125.328 24 124.5 24C123.672 24 123 24.8954 123 26C123 27.1046 123.672 28 124.5 28Z" fill="white"/>
<path d="M133 19C134.105 19 135 18.1046 135 17C135 15.8954 134.105 15 133 15C131.895 15 131 15.8954 131 17C131 18.1046 131.895 19 133 19Z" fill="white"/>
<path d="M133 28C134.105 28 135 27.1046 135 26C135 24.8954 134.105 24 133 24C131.895 24 131 24.8954 131 26C131 27.1046 131.895 28 133 28Z" fill="white"/>
<path d="M129 32C130.105 32 131 31.1046 131 30C131 28.8954 130.105 28 129 28C127.895 28 127 28.8954 127 30C127 31.1046 127.895 32 129 32Z" fill="white"/>
<path d="M137.5 23C138.328 23 139 22.1046 139 21C139 19.8954 138.328 19 137.5 19C136.672 19 136 19.8954 136 21C136 22.1046 136.672 23 137.5 23Z" fill="white"/>
<path d="M137.5 32C138.328 32 139 31.1046 139 30C139 28.8954 138.328 28 137.5 28C136.672 28 136 28.8954 136 30C136 31.1046 136.672 32 137.5 32Z" fill="white"/>
<path d="M133 36C134.105 36 135 35.1046 135 34C135 32.8954 134.105 32 133 32C131.895 32 131 32.8954 131 34C131 35.1046 131.895 36 133 36Z" fill="white"/>
<path d="M142 28C143.105 28 144 27.1046 144 26C144 24.8954 143.105 24 142 24C140.895 24 140 24.8954 140 26C140 27.1046 140.895 28 142 28Z" fill="white"/>
<path d="M135.466 77.4668L145.841 63.8054L142.555 63.8027L133.125 76.3982H129.334V63.8457H123.421C120.427 63.8457 118 66.273 118 69.2668C118 70.7623 118.607 72.1156 119.59 73.0956C120.57 74.0783 121.923 74.6852 123.421 74.6852H126.377V82.7349H121.257C120.357 82.7349 119.547 83.0973 118.959 83.6881C118.371 84.2761 118.005 85.0896 118.005 85.9864H122.191V89.1225H121.141C120.274 89.1225 119.49 89.4743 118.924 90.0408C118.354 90.6101 118.005 91.3941 118.005 92.2587L129.334 92.2613V79.0698H133.125L143.271 92.2613H146.765L135.466 77.4668ZM123.668 71.4953C122.438 71.4953 121.44 70.4965 121.44 69.2668C121.44 68.0343 122.438 67.0382 123.668 67.0382C124.898 67.0382 125.897 68.0343 125.897 69.2668C125.897 70.4965 124.898 71.4953 123.668 71.4953Z" fill="#222222"/>
</svg>
